<?xml version="1.0" ?><svg xmlns="http://www.w3.org/2000/svg" xmlns:xlink="http://www.w3.org/1999/xlink" version="1.1" viewBox="0 0 32 32" style="enable-background:new 0 0 32 32;" xml:space="preserve"><style type="text/css">
	.st0{fill:none;stroke:#263238;stroke-linecap:round;stroke-linejoin:round;stroke-miterlimit:10;}
</style><g id="calendar_x2C__date_x2C__day_x2C__thirty-two_x2C__32"><g id="XMLID_2367_"><path id="XMLID_2377_" class="st0" d="M22,6.5L22,6.5c-0.829,0-1.5-0.671-1.5-1.5V3c0-0.829,0.671-1.5,1.5-1.5l0,0    c0.829,0,1.5,0.671,1.5,1.5v1.5"/><path id="XMLID_2376_" class="st0" d="M8,6.5L8,6.5C7.171,6.5,6.5,5.829,6.5,5V3c0-0.829,0.671-1.5,1.5-1.5l0,0    c0.829,0,1.5,0.671,1.5,1.5v1.5"/><g id="XMLID_1541_"><g id="XMLID_1542_"><path id="XMLID_1562_" class="st0" d="M29.5,28.5v-23c0-0.552-0.448-1-1-1H24"/><g id="XMLID_1556_"><line id="XMLID_1561_" class="st0" x1="8.5" y1="4.5" x2="20.5" y2="4.5"/><path id="XMLID_1558_" class="st0" d="M2.5,9v19.5c0,0.552,0.448,1,1,1h23c0.552,0,1-0.448,1-1v-23c0-0.552-0.448-1-1-1h-4"/><path id="XMLID_1557_" class="st0" d="M6.5,4.5h-3c-0.552,0-1,0.448-1,1v4h23"/></g></g></g><path id="XMLID_2369_" class="st0" d="M8.526,16.41c0.164-1.081,1.097-1.91,2.224-1.91h0.5c1.243,0,2.25,1.007,2.25,2.25l0,0    c0,1.243-1.007,2.25-2.25,2.25H11h0.25c1.243,0,2.25,1.007,2.25,2.25v1c0,1.243-1.007,2.25-2.25,2.25h-0.5    c-1.243,0-2.25-1.007-2.25-2.25"/><g id="XMLID_2400_"><path id="XMLID_2401_" class="st0" d="M15.5,17.5V17c0-1.381,1.119-2.5,2.5-2.5l0,0c1.381,0,2.5,1.119,2.5,2.5v0.891     c0,1.07-0.428,2.095-1.19,2.846L15.5,24.5h5"/></g></g></g></svg>